<svg id="Layer_1" data-name="Layer 1" xmlns="http://www.w3.org/2000/svg" width="384.39" height="347.79" viewBox="0 0 384.39 347.79"><defs><style>.cls-1{fill:#fff3c2;}.cls-2{fill:#ccfbf0;}.cls-3{fill:#c3eefe;}.cls-4{fill:#e2cfe8;}.cls-5{fill:#fff;}</style></defs><title>protocol suite</title><rect class="cls-1" width="384.39" height="76.95"/><rect class="cls-2" y="90.28" width="384.39" height="76.95"/><rect class="cls-3" y="180.56" width="384.39" height="76.95"/><rect class="cls-4" y="270.84" width="384.39" height="76.95"/><path d="M12.26,30.4l-1.09,3.3H9.77l3.57-10.5H15l3.58,10.5H17.11L16,30.4Zm3.45-1.06-1-3c-.23-.68-.39-1.31-.55-1.91h0c-.15.62-.32,1.26-.53,1.9l-1,3Z"/><path d="M20,28.62c0-1,0-1.75-.07-2.46h1.24l.06,1.29h0A3,3,0,0,1,24,26c1.82,0,3.19,1.54,3.19,3.83,0,2.71-1.65,4-3.43,4a2.67,2.67,0,0,1-2.32-1.18h0v4.09H20Zm1.35,2a3.2,3.2,0,0,0,.06.56,2.12,2.12,0,0,0,2.06,1.6c1.45,0,2.29-1.18,2.29-2.91,0-1.51-.79-2.8-2.24-2.8a2.18,2.18,0,0,0-2.07,1.7,2.05,2.05,0,0,0-.1.56Z"/><path d="M28.87,28.62c0-1,0-1.75-.06-2.46H30l.06,1.29h0A3,3,0,0,1,32.81,26c1.82,0,3.2,1.54,3.2,3.83,0,2.71-1.66,4-3.43,4a2.65,2.65,0,0,1-2.32-1.18h0v4.09H28.87Zm1.36,2a3.2,3.2,0,0,0,.06.56,2.11,2.11,0,0,0,2.05,1.6c1.45,0,2.29-1.18,2.29-2.91,0-1.51-.79-2.8-2.24-2.8a2.19,2.19,0,0,0-2.07,1.7,2.05,2.05,0,0,0-.09.56Z"/><path d="M37.73,22.64H39.1V33.7H37.73Z"/><path d="M42.94,24a.85.85,0,0,1-1.7,0,.84.84,0,0,1,.86-.86A.82.82,0,0,1,42.94,24ZM41.41,33.7V26.16h1.37V33.7Z"/><path d="M50.43,33.42a5.18,5.18,0,0,1-2.17.43A3.58,3.58,0,0,1,44.51,30a3.83,3.83,0,0,1,4.05-4,4.52,4.52,0,0,1,1.9.39l-.31,1.06a3.15,3.15,0,0,0-1.59-.36,2.61,2.61,0,0,0-2.66,2.85,2.58,2.58,0,0,0,2.61,2.82,4,4,0,0,0,1.69-.37Z"/><path d="M56.21,33.7l-.11-1h-.05a2.81,2.81,0,0,1-2.3,1.12,2.15,2.15,0,0,1-2.31-2.17c0-1.82,1.62-2.82,4.54-2.8v-.16A1.56,1.56,0,0,0,54.26,27a3.77,3.77,0,0,0-2,.56l-.31-.9A4.6,4.6,0,0,1,54.46,26c2.31,0,2.87,1.57,2.87,3.08v2.82a11.06,11.06,0,0,0,.12,1.81ZM56,29.85c-1.5,0-3.2.23-3.2,1.7a1.21,1.21,0,0,0,1.3,1.31,1.89,1.89,0,0,0,1.82-1.26,1.41,1.41,0,0,0,.08-.44Z"/><path d="M61.13,24v2.17h2v1h-2v4.07c0,.93.27,1.46,1,1.46a2.89,2.89,0,0,0,.79-.09l.07,1a3.41,3.41,0,0,1-1.22.18,1.91,1.91,0,0,1-1.48-.57,2.82,2.82,0,0,1-.53-2V27.2H58.62v-1h1.17V24.35Z"/><path d="M66.16,24a.8.8,0,0,1-.87.84.82.82,0,0,1-.83-.84.84.84,0,0,1,.86-.86A.81.81,0,0,1,66.16,24ZM64.64,33.7V26.16H66V33.7Z"/><path d="M75.1,29.87a3.68,3.68,0,0,1-3.75,4A3.58,3.58,0,0,1,67.74,30a3.68,3.68,0,0,1,3.73-4A3.57,3.57,0,0,1,75.1,29.87Zm-6,.07c0,1.66.95,2.9,2.29,2.9s2.29-1.23,2.29-2.93c0-1.28-.64-2.9-2.26-2.9S69.12,28.51,69.12,29.94Z"/><path d="M76.83,28.2c0-.78,0-1.42-.06-2H78l.07,1.24h0A2.8,2.8,0,0,1,80.59,26c1,0,2.66.62,2.66,3.21v4.5H81.88V29.35c0-1.21-.45-2.23-1.74-2.23a1.94,1.94,0,0,0-1.84,1.41,1.74,1.74,0,0,0-.1.63V33.7H76.83Z"/><path d="M32.43,41.33H33.8V52.39H32.43Z"/><path d="M40.28,52.39l-.11-1h-.05a2.81,2.81,0,0,1-2.3,1.12,2.15,2.15,0,0,1-2.31-2.16c0-1.83,1.62-2.82,4.54-2.81v-.15a1.56,1.56,0,0,0-1.72-1.75,3.77,3.77,0,0,0-2,.56l-.31-.9a4.64,4.64,0,0,1,2.48-.67c2.3,0,2.86,1.57,2.86,3.08v2.82a9.92,9.92,0,0,0,.13,1.81Zm-.2-3.85c-1.5,0-3.2.24-3.2,1.7a1.22,1.22,0,0,0,1.3,1.31A1.87,1.87,0,0,0,40,50.29a1.36,1.36,0,0,0,.08-.44Z"/><path d="M44,44.85l1.65,4.46c.17.5.36,1.09.48,1.54h0c.14-.45.3-1,.49-1.57l1.49-4.43h1.45l-2.06,5.38c-1,2.58-1.65,3.91-2.58,4.72a3.68,3.68,0,0,1-1.68.88l-.35-1.15a3.58,3.58,0,0,0,1.2-.67,4.08,4.08,0,0,0,1.16-1.53.93.93,0,0,0,.1-.32,1.22,1.22,0,0,0-.09-.36l-2.79-6.95Z"/><path d="M51.43,48.87A2.43,2.43,0,0,0,54,51.49a5,5,0,0,0,2.09-.39l.23,1a6.06,6.06,0,0,1-2.51.47,3.5,3.5,0,0,1-3.7-3.8c0-2.28,1.34-4.07,3.53-4.07,2.46,0,3.12,2.16,3.12,3.55a4.34,4.34,0,0,1-.05.64Zm4-1a2,2,0,0,0-1.9-2.23,2.28,2.28,0,0,0-2.1,2.23Z"/><path d="M58.48,47.2c0-.88,0-1.65-.07-2.35h1.2l0,1.48h.06a2.27,2.27,0,0,1,2.09-1.65,1.19,1.19,0,0,1,.39,0V46a2.12,2.12,0,0,0-.47-.05,1.93,1.93,0,0,0-1.84,1.76,4.1,4.1,0,0,0-.06.64v4H58.48Z"/><path d="M18.84,114.63H15.65v-1.15h7.77v1.15H20.21V124H18.84Z"/><path d="M23.84,118.79c0-.89,0-1.65-.06-2.35H25l0,1.48h.07a2.25,2.25,0,0,1,2.08-1.65,1.51,1.51,0,0,1,.39,0v1.3a2.09,2.09,0,0,0-.46,0,1.91,1.91,0,0,0-1.84,1.76,4,4,0,0,0-.07.64v4H23.84Z"/><path d="M33,124l-.11-1h-.05a2.81,2.81,0,0,1-2.3,1.12A2.15,2.15,0,0,1,28.26,122c0-1.83,1.62-2.82,4.54-2.81V119a1.56,1.56,0,0,0-1.72-1.75,3.77,3.77,0,0,0-2,.56l-.31-.9a4.6,4.6,0,0,1,2.47-.67c2.31,0,2.87,1.57,2.87,3.08v2.82a9.92,9.92,0,0,0,.13,1.81Zm-.2-3.85c-1.5,0-3.2.24-3.2,1.7a1.22,1.22,0,0,0,1.3,1.31,1.87,1.87,0,0,0,1.82-1.26,1.36,1.36,0,0,0,.08-.44Z"/><path d="M36.36,118.48c0-.78,0-1.42-.06-2h1.22l.07,1.25h0a2.75,2.75,0,0,1,2.49-1.42c1,0,2.66.62,2.66,3.21V124H41.41v-4.35c0-1.21-.45-2.22-1.74-2.22a1.93,1.93,0,0,0-1.84,1.4,2,2,0,0,0-.1.64V124H36.36Z"/><path d="M44.82,122.58a3.65,3.65,0,0,0,1.81.54c1,0,1.46-.5,1.46-1.12s-.39-1-1.4-1.39c-1.35-.48-2-1.23-2-2.13a2.33,2.33,0,0,1,2.6-2.21,3.75,3.75,0,0,1,1.85.47l-.34,1a3,3,0,0,0-1.54-.43c-.81,0-1.26.46-1.26,1s.45.91,1.43,1.28c1.31.5,2,1.15,2,2.28,0,1.32-1,2.26-2.82,2.26a4.31,4.31,0,0,1-2.12-.52Z"/><path d="M51.18,118.9c0-1,0-1.74-.06-2.46h1.23l.06,1.29h0a3,3,0,0,1,2.68-1.46c1.82,0,3.19,1.54,3.19,3.83,0,2.71-1.65,4.05-3.42,4.05A2.66,2.66,0,0,1,52.56,123h0v4.09H51.18Zm1.35,2a2.45,2.45,0,0,0,.07.56,2.12,2.12,0,0,0,2,1.61c1.45,0,2.29-1.19,2.29-2.92,0-1.51-.79-2.8-2.24-2.8a2.18,2.18,0,0,0-2.07,1.7,2.05,2.05,0,0,0-.1.56Z"/><path d="M66.86,120.15a3.68,3.68,0,0,1-3.75,4,3.58,3.58,0,0,1-3.61-3.88,3.68,3.68,0,0,1,3.74-4A3.56,3.56,0,0,1,66.86,120.15Zm-6,.08c0,1.65.95,2.89,2.29,2.89s2.29-1.23,2.29-2.93c0-1.27-.64-2.89-2.26-2.89S60.88,118.79,60.88,120.23Z"/><path d="M68.59,118.79c0-.89,0-1.65-.06-2.35h1.2l0,1.48h.06a2.26,2.26,0,0,1,2.09-1.65,1.61,1.61,0,0,1,.39,0v1.3a2.12,2.12,0,0,0-.47,0A1.92,1.92,0,0,0,70,119.32,4.1,4.1,0,0,0,70,120v4H68.59Z"/><path d="M75.71,114.27v2.17h2v1h-2v4.07c0,.93.27,1.46,1,1.46a2.89,2.89,0,0,0,.79-.09l.07,1a3.37,3.37,0,0,1-1.22.19,1.92,1.92,0,0,1-1.48-.58,2.8,2.8,0,0,1-.53-2v-4.12H73.2v-1h1.17v-1.81Z"/><path d="M32.44,131.61h1.37v11.06H32.44Z"/><path d="M40.29,142.67l-.11-.95h0a2.81,2.81,0,0,1-2.3,1.12,2.15,2.15,0,0,1-2.31-2.16c0-1.82,1.62-2.82,4.54-2.81v-.15A1.57,1.57,0,0,0,38.34,136a3.77,3.77,0,0,0-2,.56l-.31-.9a4.69,4.69,0,0,1,2.47-.67c2.31,0,2.87,1.57,2.87,3.09v2.82a10.93,10.93,0,0,0,.12,1.8Zm-.2-3.85c-1.5,0-3.2.24-3.2,1.7a1.21,1.21,0,0,0,1.3,1.31A1.87,1.87,0,0,0,40,140.57a1.36,1.36,0,0,0,.08-.44Z"/><path d="M44,135.13l1.65,4.46c.17.5.36,1.09.48,1.54h0c.14-.45.3-1,.48-1.57l1.5-4.43h1.45l-2.06,5.38c-1,2.58-1.65,3.91-2.58,4.72a3.81,3.81,0,0,1-1.69.89L42.92,145a3.5,3.5,0,0,0,1.2-.67,4.1,4.1,0,0,0,1.15-1.52.84.84,0,0,0,.11-.33,1.22,1.22,0,0,0-.09-.36l-2.79-7Z"/><path d="M51.44,139.15A2.42,2.42,0,0,0,54,141.77a5,5,0,0,0,2.09-.39l.23,1a6.06,6.06,0,0,1-2.51.47,3.51,3.51,0,0,1-3.71-3.8c0-2.28,1.34-4.07,3.54-4.07,2.46,0,3.12,2.17,3.12,3.55a6.41,6.41,0,0,1,0,.64Zm4-1a2,2,0,0,0-1.9-2.23,2.27,2.27,0,0,0-2.1,2.23Z"/><path d="M58.48,137.48c0-.88,0-1.65-.06-2.35h1.2l.05,1.48h.06A2.26,2.26,0,0,1,61.82,135a1.6,1.6,0,0,1,.39,0v1.29a2.12,2.12,0,0,0-.47-.05A1.93,1.93,0,0,0,59.9,138a4.1,4.1,0,0,0-.06.64v4H58.48Z"/><path d="M20.13,214.26v-10.5h1.48L25,209.07a30,30,0,0,1,1.88,3.41h0c-.12-1.4-.15-2.68-.15-4.32v-4.39H28v10.5H26.64l-3.33-5.33a34.62,34.62,0,0,1-2-3.5H21.3c.08,1.33.11,2.59.11,4.33v4.49Z"/><path d="M31.1,210.74a2.42,2.42,0,0,0,2.59,2.62,4.88,4.88,0,0,0,2.08-.39l.24,1a6.1,6.1,0,0,1-2.51.47,3.51,3.51,0,0,1-3.71-3.8c0-2.28,1.34-4.07,3.54-4.07,2.46,0,3.11,2.16,3.11,3.55,0,.28,0,.5,0,.64Zm4-1a2,2,0,0,0-1.9-2.23,2.28,2.28,0,0,0-2.11,2.23Z"/><path d="M39.79,204.55v2.17h2v1h-2v4.07c0,.94.27,1.46,1,1.46a2.89,2.89,0,0,0,.79-.09l.07,1a3.37,3.37,0,0,1-1.22.19,1.92,1.92,0,0,1-1.48-.58,2.79,2.79,0,0,1-.53-2v-4.12H37.28v-1h1.17v-1.81Z"/><path d="M44,206.72l1,3.83c.22.84.42,1.62.56,2.4h.05c.17-.76.42-1.57.67-2.38l1.23-3.85h1.15l1.17,3.77c.28.9.5,1.7.67,2.46h0a23.53,23.53,0,0,1,.58-2.44l1.08-3.79h1.35l-2.43,7.54H49.85l-1.15-3.6c-.26-.84-.48-1.59-.67-2.48h0a23.86,23.86,0,0,1-.68,2.5l-1.22,3.58H44.85l-2.27-7.54Z"/><path d="M61.57,210.43a3.68,3.68,0,0,1-3.76,4,3.58,3.58,0,0,1-3.61-3.88,3.68,3.68,0,0,1,3.74-4A3.57,3.57,0,0,1,61.57,210.43Zm-6,.08c0,1.65.95,2.89,2.29,2.89s2.29-1.23,2.29-2.93c0-1.27-.64-2.89-2.26-2.89S55.59,209.07,55.59,210.51Z"/><path d="M63.3,209.07c0-.89,0-1.65-.06-2.35h1.19l0,1.48h.06a2.27,2.27,0,0,1,2.09-1.65,1.15,1.15,0,0,1,.39,0v1.29a2.12,2.12,0,0,0-.47,0,1.93,1.93,0,0,0-1.84,1.76,4.1,4.1,0,0,0-.06.64v4H63.3Z"/><path d="M69.81,210.18h0c.19-.27.45-.59.67-.86l2.21-2.6h1.65l-2.91,3.1,3.32,4.44H73.11l-2.6-3.61-.7.78v2.83H68.45V203.2h1.36Z"/><path d="M32.35,221.89h1.37V233H32.35Z"/><path d="M40.2,233l-.11-.95h0a2.79,2.79,0,0,1-2.31,1.12,2.14,2.14,0,0,1-2.3-2.16c0-1.82,1.62-2.82,4.53-2.8V228a1.56,1.56,0,0,0-1.71-1.75,3.73,3.73,0,0,0-2,.57l-.31-.91a4.76,4.76,0,0,1,2.48-.67c2.3,0,2.87,1.58,2.87,3.09v2.82a10.93,10.93,0,0,0,.12,1.8Zm-.2-3.84c-1.49,0-3.19.23-3.19,1.69a1.21,1.21,0,0,0,1.29,1.31,1.86,1.86,0,0,0,1.82-1.26,1.36,1.36,0,0,0,.08-.44Z"/><path d="M43.91,225.41l1.65,4.46c.17.5.36,1.09.49,1.54h0c.14-.45.29-1,.48-1.57l1.5-4.43H49.5l-2,5.38c-1,2.58-1.65,3.91-2.59,4.72a3.84,3.84,0,0,1-1.68.89l-.34-1.16a3.59,3.59,0,0,0,1.2-.67,4.1,4.1,0,0,0,1.15-1.52.62.62,0,0,0,0-.69l-2.78-7Z"/><path d="M51.36,229.43a2.41,2.41,0,0,0,2.58,2.62,4.9,4.9,0,0,0,2.09-.39l.24,1a6.1,6.1,0,0,1-2.51.47,3.51,3.51,0,0,1-3.71-3.8c0-2.28,1.34-4.07,3.54-4.07,2.46,0,3.11,2.17,3.11,3.55a4.34,4.34,0,0,1-.05.64Zm4-1a2,2,0,0,0-1.9-2.23,2.28,2.28,0,0,0-2.11,2.23Z"/><path d="M58.4,227.77c0-.89,0-1.66-.06-2.36h1.2l0,1.48h.07a2.25,2.25,0,0,1,2.08-1.65,1.48,1.48,0,0,1,.39,0v1.29a2.17,2.17,0,0,0-.47,0,1.91,1.91,0,0,0-1.83,1.76,3,3,0,0,0-.07.63v4H58.4Z"/><path d="M34.57,294h1.36v9.37h4.48v1.13H34.57Z"/><path d="M43.4,294.88a.8.8,0,0,1-.87.84.82.82,0,0,1-.83-.84.83.83,0,0,1,.86-.85A.81.81,0,0,1,43.4,294.88Zm-1.52,9.66V297h1.37v7.54Z"/><path d="M45.52,299c0-.78,0-1.41-.06-2h1.21l.08,1.25h0a2.78,2.78,0,0,1,2.5-1.42c1,0,2.66.62,2.66,3.21v4.5H50.57V300.2c0-1.22-.45-2.23-1.75-2.23a1.94,1.94,0,0,0-1.83,1.4,1.79,1.79,0,0,0-.1.64v4.53H45.52Z"/><path d="M55.52,300.46h0c.19-.26.45-.59.67-.86l2.22-2.6h1.65l-2.92,3.1,3.32,4.44H58.82l-2.6-3.61-.7.78v2.83H54.17V293.48h1.35Z"/><path d="M32.43,312.17H33.8v11.07H32.43Z"/><path d="M40.28,323.24l-.11-.95h-.05a2.81,2.81,0,0,1-2.3,1.12,2.15,2.15,0,0,1-2.31-2.17c0-1.82,1.62-2.82,4.54-2.8v-.16a1.56,1.56,0,0,0-1.72-1.74,3.68,3.68,0,0,0-2,.56l-.31-.91a4.69,4.69,0,0,1,2.47-.67c2.31,0,2.87,1.58,2.87,3.09v2.82a10.06,10.06,0,0,0,.13,1.81Zm-.2-3.85c-1.5,0-3.2.23-3.2,1.7a1.22,1.22,0,0,0,1.3,1.3A1.87,1.87,0,0,0,40,321.13a1.31,1.31,0,0,0,.08-.43Z"/><path d="M44,315.69l1.65,4.46c.17.5.36,1.09.48,1.54h0c.14-.45.3-1,.49-1.57l1.49-4.43h1.45l-2.06,5.38c-1,2.59-1.65,3.91-2.58,4.72a3.7,3.7,0,0,1-1.69.89l-.34-1.15a3.67,3.67,0,0,0,1.2-.67,4.13,4.13,0,0,0,1.15-1.53.84.84,0,0,0,.11-.33,1.22,1.22,0,0,0-.09-.36l-2.79-6.95Z"/><path d="M51.43,319.71A2.42,2.42,0,0,0,54,322.33a5,5,0,0,0,2.09-.39l.23,1a6.06,6.06,0,0,1-2.51.47,3.51,3.51,0,0,1-3.71-3.8c0-2.27,1.34-4.07,3.54-4.07,2.46,0,3.12,2.17,3.12,3.56a4.18,4.18,0,0,1-.05.63Zm4-1a1.94,1.94,0,0,0-1.9-2.22,2.27,2.27,0,0,0-2.1,2.22Z"/><path d="M58.48,318.05c0-.89,0-1.65-.07-2.36h1.2l0,1.48h.06a2.26,2.26,0,0,1,2.09-1.65,1.6,1.6,0,0,1,.39.05v1.29a2.17,2.17,0,0,0-.47,0,1.93,1.93,0,0,0-1.84,1.76,3.87,3.87,0,0,0-.06.64v4H58.48Z"/><rect class="cls-5" x="94.04" y="103.25" width="133.58" height="55.74"/><path d="M147.91,123.92H143.4v-1.63h11v1.63h-4.53v13.2h-1.94Z"/><path d="M165.8,136.64a9.53,9.53,0,0,1-3.92.7c-4.18,0-7.32-2.64-7.32-7.5a7.38,7.38,0,0,1,7.74-7.79,8,8,0,0,1,3.52.66l-.46,1.56a7,7,0,0,0-3-.61c-3.48,0-5.79,2.22-5.79,6.12,0,3.63,2.09,6,5.7,6a7.53,7.53,0,0,0,3.12-.62Z"/><path d="M168.2,122.47a22.46,22.46,0,0,1,3.67-.29,6.06,6.06,0,0,1,4.16,1.24,4,4,0,0,1,1.3,3.1,4.37,4.37,0,0,1-1.15,3.17,6.13,6.13,0,0,1-4.53,1.63,6.57,6.57,0,0,1-1.54-.14v5.94H168.2Zm1.91,7.15a6.41,6.41,0,0,0,1.58.16c2.32,0,3.72-1.13,3.72-3.17s-1.38-2.91-3.5-2.91a7.82,7.82,0,0,0-1.8.16Z"/><rect class="cls-5" x="236.42" y="102.75" width="133.58" height="55.74"/><path d="M285.54,121.8v8.78c0,3.32,1.48,4.73,3.46,4.73,2.2,0,3.6-1.45,3.6-4.73V121.8h1.94v8.65c0,4.55-2.4,6.43-5.61,6.43-3,0-5.32-1.74-5.32-6.34V121.8Z"/><path d="M297.86,122a28.25,28.25,0,0,1,4.07-.31c2.75,0,4.71.64,6,1.85a6.84,6.84,0,0,1,2.09,5.33,7.81,7.81,0,0,1-2.14,5.76c-1.38,1.39-3.67,2.14-6.55,2.14a30.81,30.81,0,0,1-3.48-.18Zm1.92,13.12a13.14,13.14,0,0,0,1.93.1c4.09,0,6.32-2.28,6.32-6.29,0-3.5-2-5.72-6-5.72a10.76,10.76,0,0,0-2.24.2Z"/><path d="M312.51,122a22.7,22.7,0,0,1,3.68-.29,6,6,0,0,1,4.15,1.24,4,4,0,0,1,1.3,3.1,4.36,4.36,0,0,1-1.14,3.17,6.16,6.16,0,0,1-4.53,1.62,6.56,6.56,0,0,1-1.54-.13v5.94h-1.92Zm1.92,7.15a6.35,6.35,0,0,0,1.58.15c2.31,0,3.72-1.12,3.72-3.16s-1.39-2.91-3.5-2.91a7.75,7.75,0,0,0-1.8.16Z"/><rect class="cls-5" x="96.53" y="191.17" width="271.97" height="55.74"/><path d="M192.56,210.66v14.83h-1.91V210.66Z"/><path d="M195.9,210.84a22.7,22.7,0,0,1,3.68-.29,6.06,6.06,0,0,1,4.16,1.24,4,4,0,0,1,1.3,3.1,4.37,4.37,0,0,1-1.15,3.17,6.16,6.16,0,0,1-4.53,1.62,6.6,6.6,0,0,1-1.54-.13v5.94H195.9Zm1.92,7.15a6.46,6.46,0,0,0,1.58.15c2.31,0,3.72-1.12,3.72-3.16s-1.38-2.91-3.5-2.91a7.82,7.82,0,0,0-1.8.16Z"/><path d="M216.41,210.22a14.5,14.5,0,0,0-2.77,9,14.86,14.86,0,0,0,2.77,8.94h-1.52a14.29,14.29,0,0,1-2.88-8.94,14.57,14.57,0,0,1,2.88-9Z"/><path d="M219.2,214.84l2.09,6a25.64,25.64,0,0,1,.86,2.73h.07c.24-.88.55-1.76.9-2.73l2.07-6h2L223,225.49h-1.85l-4-10.65Z"/><path d="M234.4,225.49V221.6h-6.64v-1.28l6.38-9.13h2.09v8.89h2v1.52h-2v3.89Zm0-5.41v-4.77c0-.75,0-1.5.07-2.25h-.07c-.43.84-.79,1.45-1.18,2.11l-3.5,4.87v0Z"/><path d="M239.07,228.2a31.83,31.83,0,0,0,1.32-5.26l2.15-.22a26.41,26.41,0,0,1-2.09,5.35Z"/><path d="M250.29,214.84l2.09,6a28.16,28.16,0,0,1,.86,2.73h.06c.24-.88.55-1.76.9-2.73l2.07-6h2l-4.18,10.65h-1.85l-4.05-10.65Z"/><path d="M267.67,212.56a6.9,6.9,0,0,0-1.45.08,5.82,5.82,0,0,0-5,5.09h.07a4.23,4.23,0,0,1,3.45-1.65c2.53,0,4.32,1.82,4.32,4.62a4.79,4.79,0,0,1-4.76,5c-3.05,0-5.06-2.38-5.06-6.1a9,9,0,0,1,2.42-6.45,7.85,7.85,0,0,1,4.58-2.11,9.06,9.06,0,0,1,1.41-.11Zm-.55,8.25c0-2.05-1.17-3.28-2.95-3.28a3.17,3.17,0,0,0-2.77,1.76,1.65,1.65,0,0,0-.22.86c0,2.35,1.12,4.09,3.14,4.09C266,224.24,267.12,222.85,267.12,220.81Z"/><path d="M270.24,228.16a14.91,14.91,0,0,0,2.77-9,14.57,14.57,0,0,0-2.77-8.94h1.5a14,14,0,0,1,2.88,9,14.29,14.29,0,0,1-2.88,9Z"/><rect class="cls-5" x="94.02" y="13.58" width="84.74" height="55.74"/><path d="M116.4,31.76V38h7.17v-6.2h1.94V46.59h-1.94v-7H116.4v7h-1.92V31.76Z"/><path d="M131.64,33.39h-4.51V31.76h11v1.63h-4.53v13.2h-1.94Z"/><path d="M143.41,33.39H138.9V31.76h11v1.63h-4.53v13.2h-1.94Z"/><path d="M151.53,31.93a22.88,22.88,0,0,1,3.68-.28,6.08,6.08,0,0,1,4.15,1.23,4,4,0,0,1,1.3,3.1,4.36,4.36,0,0,1-1.14,3.17A6.13,6.13,0,0,1,155,40.78a6.56,6.56,0,0,1-1.54-.13v5.94h-1.92Zm1.92,7.15a6.3,6.3,0,0,0,1.58.16c2.31,0,3.72-1.12,3.72-3.17s-1.39-2.9-3.5-2.9a7.91,7.91,0,0,0-1.8.15Z"/><rect class="cls-5" x="191.09" y="13.58" width="84.74" height="55.74"/><rect class="cls-5" x="288.16" y="13.58" width="84.74" height="55.74"/><path d="M222.16,33.39h-4.51V31.76h11v1.63H224.1v13.2h-1.94Z"/><path d="M230.28,31.76h1.92V45h6.33v1.61h-8.25Z"/><path d="M240.4,44.25a6.76,6.76,0,0,0,3.43,1c2,0,3.11-1,3.11-2.53s-.8-2.18-2.8-2.95c-2.42-.85-3.91-2.11-3.91-4.2,0-2.31,1.91-4,4.79-4a6.8,6.8,0,0,1,3.28.72l-.53,1.56a5.93,5.93,0,0,0-2.81-.7c-2,0-2.8,1.21-2.8,2.22,0,1.39.9,2.07,3,2.86,2.51,1,3.78,2.18,3.78,4.36s-1.69,4.27-5.19,4.27a7.62,7.62,0,0,1-3.78-1Z"/><path d="M311,32a28.25,28.25,0,0,1,4.07-.3c2.75,0,4.71.64,6,1.85a6.78,6.78,0,0,1,2.09,5.32A7.81,7.81,0,0,1,321,44.58c-1.39,1.39-3.67,2.14-6.56,2.14a30.76,30.76,0,0,1-3.47-.18Zm1.91,13.12a11.94,11.94,0,0,0,1.94.11c4.09,0,6.31-2.29,6.31-6.29,0-3.5-2-5.72-6-5.72a11,11,0,0,0-2.24.19Z"/><path d="M325.61,46.59V31.76h2.09l4.75,7.5a41.35,41.35,0,0,1,2.66,4.82l.05,0c-.18-2-.22-3.79-.22-6.1v-6.2h1.8V46.59H334.8l-4.7-7.53a46.08,46.08,0,0,1-2.78-5l-.06,0c.11,1.87.15,3.66.15,6.12v6.34Z"/><path d="M339.82,44.25a6.76,6.76,0,0,0,3.43,1c2,0,3.11-1,3.11-2.53s-.8-2.18-2.8-2.95c-2.42-.85-3.92-2.11-3.92-4.2,0-2.31,1.92-4,4.8-4a6.8,6.8,0,0,1,3.28.72l-.53,1.56a5.94,5.94,0,0,0-2.82-.7c-2,0-2.79,1.21-2.79,2.22,0,1.39.9,2.07,2.95,2.86,2.51,1,3.78,2.18,3.78,4.36s-1.69,4.27-5.19,4.27a7.62,7.62,0,0,1-3.78-1Z"/><rect class="cls-5" x="96.53" y="280.54" width="133.58" height="55.74"/><path d="M138.62,307.89h-4.71v4.38h5.25v1.31h-6.82V301.44h6.55v1.32h-5v3.83h4.71Z"/><path d="M143,302.36v2.51h2.26v1.2H143v4.7c0,1.08.3,1.69,1.18,1.69a3.78,3.78,0,0,0,.92-.1l.07,1.18a3.74,3.74,0,0,1-1.4.22,2.17,2.17,0,0,1-1.71-.67,3.2,3.2,0,0,1-.61-2.26v-4.76H140.1v-1.2h1.35v-2.09Z"/><path d="M147.05,300.8h1.58v5.43h0a2.87,2.87,0,0,1,1.13-1.11,3.28,3.28,0,0,1,1.62-.45c1.17,0,3,.72,3,3.72v5.19h-1.58v-5c0-1.41-.52-2.6-2-2.6a2.28,2.28,0,0,0-2.12,1.59,1.88,1.88,0,0,0-.11.75v5.26h-1.58Z"/><path d="M157.92,309.51a2.79,2.79,0,0,0,3,3,5.75,5.75,0,0,0,2.41-.45l.27,1.13a7.09,7.09,0,0,1-2.9.54,4,4,0,0,1-4.28-4.39c0-2.63,1.54-4.7,4.08-4.7,2.85,0,3.6,2.5,3.6,4.1a5.67,5.67,0,0,1-.05.74Zm4.64-1.13a2.25,2.25,0,0,0-2.19-2.58,2.62,2.62,0,0,0-2.43,2.58Z"/><path d="M166.05,307.58c0-1,0-1.9-.07-2.71h1.39l0,1.71h.07a2.62,2.62,0,0,1,2.42-1.91,2.06,2.06,0,0,1,.45.05v1.5a2.17,2.17,0,0,0-2.67,2,5,5,0,0,0-.07.73v4.65h-1.57Z"/><path d="M172,307.22c0-.9,0-1.63-.07-2.35h1.4l.09,1.44h0a3.2,3.2,0,0,1,2.88-1.64c1.21,0,3.08.72,3.08,3.71v5.2h-1.58v-5c0-1.41-.53-2.58-2-2.58a2.25,2.25,0,0,0-2.13,1.62,2.37,2.37,0,0,0-.1.74v5.24H172Z"/><path d="M182.88,309.51a2.8,2.8,0,0,0,3,3,5.8,5.8,0,0,0,2.42-.45l.27,1.13a7.13,7.13,0,0,1-2.9.54,4,4,0,0,1-4.29-4.39c0-2.63,1.55-4.7,4.09-4.7,2.84,0,3.6,2.5,3.6,4.1,0,.33,0,.58-.05.74Zm4.65-1.13a2.26,2.26,0,0,0-2.2-2.58,2.63,2.63,0,0,0-2.43,2.58Z"/><path d="M192.93,302.36v2.51h2.27v1.2h-2.27v4.7c0,1.08.3,1.69,1.19,1.69a3.69,3.69,0,0,0,.91-.1l.08,1.18a3.84,3.84,0,0,1-1.41.22,2.17,2.17,0,0,1-1.71-.67,3.2,3.2,0,0,1-.61-2.26v-4.76H190v-1.2h1.35v-2.09Z"/><rect class="cls-5" x="238.91" y="280.05" width="133.58" height="55.74"/><path d="M260.77,313.58l-3.08-12.14h1.65l1.44,6.14c.36,1.52.69,3,.9,4.2h0c.2-1.21.58-2.65,1-4.21l1.62-6.13H266l1.48,6.16c.34,1.44.66,2.88.84,4.16h0c.25-1.33.59-2.68,1-4.19l1.6-6.13h1.61l-3.44,12.14h-1.64l-1.53-6.32a35.81,35.81,0,0,1-.79-4h0a39.07,39.07,0,0,1-.94,4l-1.73,6.32Z"/><path d="M275.44,302.42a1,1,0,0,1-2,0,1,1,0,0,1,1-1A.94.94,0,0,1,275.44,302.42Zm-1.77,11.16v-8.71h1.58v8.71Z"/><path d="M277.88,307.58c0-1,0-1.9-.07-2.71h1.39l.05,1.71h.07a2.62,2.62,0,0,1,2.42-1.91,2.06,2.06,0,0,1,.45.05v1.5a2.17,2.17,0,0,0-2.67,2,5,5,0,0,0-.07.73v4.65h-1.57Z"/><path d="M284.47,309.51a2.8,2.8,0,0,0,3,3,5.75,5.75,0,0,0,2.41-.45l.27,1.13a7.09,7.09,0,0,1-2.9.54,4,4,0,0,1-4.28-4.39c0-2.63,1.55-4.7,4.09-4.7,2.84,0,3.6,2.5,3.6,4.1a5.31,5.31,0,0,1-.06.74Zm4.65-1.13a2.27,2.27,0,0,0-2.2-2.58,2.63,2.63,0,0,0-2.43,2.58Z"/><path d="M292.61,300.8h1.58v12.78h-1.58Z"/><path d="M297.74,309.51a2.79,2.79,0,0,0,3,3,5.78,5.78,0,0,0,2.41-.45l.27,1.13a7.09,7.09,0,0,1-2.9.54,4,4,0,0,1-4.29-4.39c0-2.63,1.55-4.7,4.09-4.7,2.85,0,3.6,2.5,3.6,4.1a5.67,5.67,0,0,1-.05.74Zm4.64-1.13a2.25,2.25,0,0,0-2.19-2.58,2.64,2.64,0,0,0-2.44,2.58Z"/><path d="M305.66,312a4.06,4.06,0,0,0,2.08.63c1.16,0,1.7-.58,1.7-1.3s-.45-1.17-1.62-1.6c-1.57-.56-2.31-1.42-2.31-2.47,0-1.4,1.14-2.55,3-2.55a4.34,4.34,0,0,1,2.14.54l-.39,1.15a3.41,3.41,0,0,0-1.79-.5c-.93,0-1.46.54-1.46,1.18s.53,1,1.66,1.48c1.51.58,2.29,1.33,2.29,2.63,0,1.53-1.19,2.61-3.26,2.61a5,5,0,0,1-2.45-.59Z"/><path d="M312.78,312a4.13,4.13,0,0,0,2.09.63c1.15,0,1.7-.58,1.7-1.3s-.46-1.17-1.63-1.6c-1.56-.56-2.3-1.42-2.3-2.47,0-1.4,1.13-2.55,3-2.55a4.34,4.34,0,0,1,2.14.54l-.4,1.15a3.34,3.34,0,0,0-1.78-.5c-.94,0-1.46.54-1.46,1.18s.52,1,1.66,1.48c1.51.58,2.29,1.33,2.29,2.63,0,1.53-1.19,2.61-3.26,2.61a5,5,0,0,1-2.45-.59Z"/><path d="M324,301.44h1.56v10.83h5.19v1.31H324Z"/><path d="M334.46,309.76l-1.27,3.82h-1.62l4.13-12.14h1.89l4.14,12.14h-1.67l-1.3-3.82Zm4-1.22-1.19-3.49c-.27-.8-.45-1.52-.63-2.22h0c-.18.72-.38,1.46-.61,2.2l-1.19,3.51Z"/><path d="M343.51,313.58V301.44h1.71l3.89,6.14a36,36,0,0,1,2.18,3.95l0,0c-.14-1.62-.18-3.1-.18-5v-5.08h1.48v12.14H351l-3.85-6.16a40.55,40.55,0,0,1-2.27-4.05l-.05,0c.09,1.53.13,3,.13,5v5.19Z"/></svg>